<svg xmlns="http://www.w3.org/2000/svg" width="750" height="750" style="shape-rendering:geometricPrecision;text-rendering:geometricPrecision;image-rendering:optimizeQuality;fill-rule:evenodd;clip-rule:evenodd"><path fill="#d81e25" d="M62.5-.5h624q51.508 11.51 63 63v624q-11.5 51.5-63 63h-624Q11 738-.5 686.5v-624q11.49-51.49 63-63" style="opacity:.999"/><path fill="#f3d2ae" d="M160.5 97.5q25.155-1.865 44 14.5l53.5 67.5q13 21.5 0 43-19.015 20.439-37-1a5832 5832 0 0 1-44.5-57.5q-16.832-8.364-24.5 8.5a51.5 51.5 0 0 0-3 11q-.75 88.499-.5 177 3.424-.162 6-2.5a1676 1676 0 0 1 73-65q23.012-5.868 31.5 16.5 5.806 18.67-5 35a2368 2368 0 0 1-59.5 53.5 29.8 29.8 0 0 0-6 7 1602 1602 0 0 0 64.5 70.5q17 23.5 0 47-13.441 13.604-29.5 3.5a3908 3908 0 0 0-72-77 4.93 4.93 0 0 0-3-.5q.25 30.005-.5 60-1.823 17.914-17.5 26.5-21.455 4.095-29.5-16.5a55 55 0 0 1-2-7q-1-163.5 0-327 3.16-32.31 20-60 15.352-22.036 41.5-27M346.5 530.5h-19v94q-2.67 22.412-24.5 27-23.076-5.093-25-29a18760 18760 0 0 1 0-274q12.133-71.721 83.5-55.5 38.963 11.463 59.5 46.5 30.053 55.438 12 116-12.455 40.42-47.5 63.5-18.064 10.64-39 11.5M478.5 291.5q15.93-2.406 24.5 11a47.2 47.2 0 0 1 5 12 2988 2988 0 0 1 2 106q3.936 30.156 30.5 44.5 39.756 9.495 55.5-28.5a83 83 0 0 0 4-15l1-104q2.134-15.04 14.5-23.5 21.11-7.836 31.5 12.5a50 50 0 0 1 3 9q1 54 0 108-4.861 54.98-46.5 90.5-59.28 37.864-109.5-11.5-30.124-34.266-34-80-1-54 0-108 4.207-15.918 18.5-23" style="opacity:1"/><path fill="#d81e25" d="M328.5 354.5q46.602-6.14 59.5 39 7.35 31.572-11 58-9.927 12.338-25.5 15h-23z" style="opacity:1"/><path fill="#dc3c3b" d="M328.5 354.5v112h23q-11.724 1.489-24 1-.497-56.756 1-113M346.5 530.5q-8.715 1.485-18 1 .497 46.757-1 93v-94z" style="opacity:1"/></svg>