<svg xmlns="http://www.w3.org/2000/svg" width="1221" height="975" style="shape-rendering:geometricPrecision;text-rendering:geometricPrecision;image-rendering:optimizeQuality;fill-rule:evenodd;clip-rule:evenodd"><path fill="#d81e25" d="M179.5 5.5q430.5-.25 861 .5c72.01 8.07 123.84 44.57 155.5 109.5q12.645 28.702 15 60 1.005 311.5 0 623c-8.8 73.798-46.96 125.965-114.5 156.5-18 7.167-36.67 11.501-56 13q-430.5 1-861 0Q69.865 955.806 23 856.5q-11.231-26.925-14-56-1.485-318.028 1-636Q30.742 50.267 140.5 13q19.435-5.24 39-7.5" style="opacity:.998"/><path fill="#f3d2ae" d="M260.5 125.5q41.187-3.844 75 19.5a5605 5605 0 0 1 88.5 89.5q21.47 32.887-6.5 60.5-26.5 17-53 0-40-42-82-82-23.865-7.195-34.5 15.5a63.2 63.2 0 0 0-4 17q-1 111.5 0 223A5148 5148 0 0 1 368.5 380q29.65-10.329 50.5 13.5 17.298 26.763-1 53a70.6 70.6 0 0 1-10.5 9.5 8189 8189 0 0 0-99 71l104 89q22.635 21.297 11.5 50.5-16.677 29.709-50.5 23.5a114 114 0 0 1-13-6L244 583.5l-1 79q-5.252 27.754-32.5 35.5-38.392 4.944-50.5-31.5a11579 11579 0 0 1-1.5-214l.5-209q5.096-50.174 38-88 27.116-24.934 63.5-30M520.5 377.5q30.005-.25 60 .5 98.81 16.815 131.5 111.5 22.554 90.037-40.5 157.5-57.763 52.219-136 44.5.25 60.502-.5 121-9.848 39.313-50.5 35.5-27.065-8.063-33.5-35.5a16933 16933 0 0 1 1-366q13.503-55.252 68.5-69M779.5 377.5q35.868-4.199 49.5 29a4601 4601 0 0 1 2 133q8.741 55.241 63.5 66.5 53.427 3.424 76.5-44.5a80.3 80.3 0 0 0 5-22l1-128c10.056-29.945 30.22-40.112 60.5-30.5 13.05 6.598 20.88 17.098 23.5 31.5q1.005 65.5 0 131-11.19 106.677-112.5 141.5-102.258 24.745-169.5-55.5-23.638-32.298-31-72a1579 1579 0 0 1-1.5-77.5l.5-70.5q7.185-25.436 32.5-32" style="opacity:1"/><path fill="#d81f25" d="M535.5 461.5q36.015-4.863 67 13.5 46.23 38.174 22.5 93.5-16.49 28.482-48.5 36.5a346 346 0 0 1-41 1.5z" style="opacity:1"/></svg>